<?xml version="1.0" encoding="UTF-8"?>
<svg id="Layer_2" data-name="Layer 2" xmlns="http://www.w3.org/2000/svg" viewBox="0 0 413.86 113.39">
  <defs>
    <style>
      .cls-1 {
        fill: none;
      }

      .cls-2 {
        fill: #72808a;
      }

      .cls-3 {
        fill: #70aeb9;
      }
    </style>
  </defs>
  <g id="BAA_med_bue_og_cirkler" data-name="BAA med bue og cirkler">
    <g>
      <path class="cls-2" d="M313.97,58.45l.79,2.29h1.21l-2.9-8.33h-1.41l-2.8,8.33h1.13l.74-2.29h3.23ZM312.36,53.42h.03s-.03,0-.03,0h0ZM312.32,53.57l1.31,3.87h-2.56l1.26-3.87Z"/>
      <path class="cls-2" d="M305.49,58.45l.8,2.29h1.21l-2.9-8.33h-1.41l-2.8,8.33h1.13l.74-2.29h3.23ZM303.88,53.42h.03s-.03,0-.03,0h0ZM303.83,53.57l1.31,3.87h-2.56l1.26-3.87Z"/>
      <path class="cls-2" d="M349.91,56.28l-1.85-.54c-.56-.17-.93-.25-.92-.71v-.67c.02-.47.25-.85.89-.87h3.39v-.64c0-.31-.32-.37-.72-.37h-2.6c-.77,0-1.29.25-1.58.61-.3.36-.5.71-.5,1.27v.81c-.01,1.05.59,1.36,1.75,1.65l1.92.56c.57.17.85.29.85.76v.35c0,.74-.41,1.26-1.15,1.26h-3.38v.64c0,.27.23.37.48.37h2.9c.82,0,1.32-.23,1.62-.51.3-.28.64-.82.64-1.71v-.55c.01-1.07-.7-1.4-1.75-1.69Z"/>
      <path class="cls-2" d="M341.88,58.37c-.01.91-.41,1.47-1.29,1.48h-1.34c-.89,0-1.28-.57-1.3-1.48v-5.88h-1.16v5.93c0,.84.24,1.47.69,1.88.44.41,1.07.59,1.8.59h1.24c.76,0,1.39-.2,1.82-.62.43-.42.66-1.06.66-1.9v-5.88h-1.13v5.88Z"/>
      <polygon class="cls-2" points="332.34 55.89 328.27 55.89 328.27 52.48 327.11 52.48 327.11 60.75 328.27 60.75 328.27 56.9 332.34 56.9 332.34 60.75 333.5 60.75 333.5 52.48 332.34 52.48 332.34 55.89"/>
      <path class="cls-2" d="M322.16,57.44c1.04,0,1.84-.6,1.84-1.8v-1.32c0-.6-.15-1.08-.5-1.39-.35-.31-.86-.45-1.54-.45h-3.77v8.26h1.16v-3.3h1.39l2.24,3.3h1.38l-2.29-3.3h.09ZM319.34,56.47v-2.98h2.28c.96.03,1.21.13,1.23.91v1.05c-.03.83-.19.98-1.12,1.01h-2.39Z"/>
    </g>
    <g>
      <path class="cls-2" d="M312.71,36.41l-2.8,8.33h1.13l.74-2.29h3.23l.79,2.29h1.21l-2.9-8.33h-1.41ZM313.41,37.42h.03s-.03,0-.03,0h0ZM312.11,41.45l1.25-3.87,1.31,3.87h-2.56Z"/>
      <path class="cls-2" d="M331.58,42.45l.8,2.29h1.21l-2.9-8.33h-1.41l-2.8,8.33h1.13l.74-2.29h3.23ZM329.97,37.42h.03s-.03,0-.03,0h0ZM329.93,37.58l1.31,3.87h-2.56l1.26-3.87Z"/>
      <polygon class="cls-2" points="350.54 43.74 346.26 43.74 346.26 40.9 349.64 40.9 349.64 39.88 346.26 39.88 346.26 37.49 350.54 37.49 350.54 36.48 345.1 36.48 345.1 44.75 350.54 44.75 350.54 43.74"/>
      <polygon class="cls-2" points="357.78 43.21 359.82 37.81 359.91 38.72 360.48 44.75 361.58 44.75 360.76 36.49 359.17 36.48 357.27 41.63 355.37 36.48 353.78 36.49 352.97 44.75 354.06 44.75 354.63 38.72 354.72 37.81 356.76 43.21 357.78 43.21"/>
      <path class="cls-2" d="M341.29,44.13c.46-.44.69-1.13.69-2.09v-2.92c0-.91-.23-1.58-.68-2.02-.45-.44-1.11-.62-1.92-.62h-3.46v8.26h3.44c.81,0,1.47-.17,1.93-.61ZM337.08,43.75v-6.27h2.2c1.1.02,1.52.49,1.54,1.75v2.78c-.03,1.28-.37,1.72-1.53,1.74h-2.21Z"/>
      <path class="cls-2" d="M320.03,38.76c0-.74.41-1.25,1.14-1.25h3.38v-.64c0-.27-.23-.37-.48-.37h-2.9c-.82,0-1.32.23-1.62.51-.3.28-.64.82-.64,1.71v3.81c0,.89.34,1.43.64,1.71.3.28.8.51,1.62.51h2.9c.25,0,.48-.1.48-.37v-.64h-3.38c-.74,0-1.14-.52-1.14-1.25v-3.72Z"/>
      <polygon class="cls-2" points="368.65 36.47 366.57 40.08 364.51 36.47 363.23 36.47 365.93 41.12 365.93 44.75 367.11 44.75 367.11 41.12 369.85 36.47 368.65 36.47"/>
    </g>
    <g>
      <polygon class="cls-2" points="287.55 43.74 283.27 43.74 283.27 40.9 286.65 40.9 286.65 39.88 283.27 39.88 283.27 37.49 287.55 37.49 287.55 36.48 282.11 36.48 282.11 44.75 287.55 44.75 287.55 43.74"/>
      <path class="cls-2" d="M302.54,40.29l-1.85-.54c-.56-.17-.93-.25-.92-.71v-.67c.02-.47.25-.85.89-.87h3.39v-.64c0-.31-.32-.37-.72-.37h-2.6c-.77,0-1.29.25-1.58.61-.3.36-.5.71-.5,1.27v.81c-.01,1.05.59,1.36,1.75,1.65l1.92.56c.57.17.85.29.85.76v.35c0,.74-.41,1.25-1.14,1.25h-3.38v.64c0,.27.23.37.48.37h2.9c.82,0,1.32-.23,1.62-.51s.65-.82.65-1.71v-.55c.01-1.07-.7-1.4-1.75-1.69Z"/>
      <path class="cls-2" d="M294.22,40.29l-1.85-.54c-.56-.17-.93-.25-.92-.71v-.67c.02-.47.25-.85.89-.87h3.39v-.64c0-.31-.32-.37-.72-.37h-2.6c-.77,0-1.29.25-1.58.61-.3.36-.5.71-.5,1.27v.81c-.01,1.05.59,1.36,1.75,1.65l1.92.56c.57.17.85.29.85.76v.35c0,.74-.41,1.25-1.15,1.25h-3.38v.64c0,.27.23.37.48.37h2.9c.82,0,1.32-.23,1.62-.51.3-.28.64-.82.64-1.71v-.55c.01-1.07-.7-1.4-1.75-1.69Z"/>
      <path class="cls-2" d="M263.44,40.29l-1.85-.54c-.56-.17-.93-.25-.92-.71v-.67c.02-.47.25-.85.89-.87h3.39v-.64c0-.31-.32-.37-.72-.37h-2.6c-.77,0-1.29.25-1.58.61-.3.36-.5.71-.5,1.27v.81c-.01,1.05.59,1.36,1.75,1.65l1.92.56c.57.17.85.29.85.76v.35c0,.74-.41,1.25-1.14,1.25h-3.38v.64c0,.27.23.37.48.37h2.9c.82,0,1.32-.23,1.62-.51.3-.28.65-.82.65-1.71v-.55c.01-1.07-.7-1.4-1.75-1.69Z"/>
      <path class="cls-2" d="M255.55,42.37c-.01.91-.41,1.47-1.3,1.48h-1.34c-.89,0-1.28-.57-1.3-1.48v-5.88h-1.16v5.93c0,.84.24,1.47.69,1.88.44.41,1.07.59,1.8.59h1.24c.76,0,1.39-.2,1.82-.62.43-.42.66-1.06.66-1.9v-5.88h-1.13v5.88Z"/>
      <path class="cls-2" d="M246.61,40.48c.28-.11.49-.28.64-.51.18-.3.25-.69.25-1.19v-.62c0-.39-.13-.81-.42-1.14-.29-.33-.74-.55-1.35-.55h-3.97v8.27h3.83c.54,0,1.05-.12,1.42-.43.38-.31.6-.81.6-1.53v-.86c0-.67-.33-1.25-1-1.46ZM242.91,37.46h2.53c.38,0,.62.09.76.24.14.15.21.39.21.72v.52c0,.43-.09.69-.24.84-.15.15-.37.22-.69.22h-2.56v-2.54ZM246.47,42.7c0,.44-.08.7-.21.85-.13.14-.36.21-.72.21h-2.62v-2.7h2.56c.37,0,.62.07.77.21.15.14.23.38.23.78v.66Z"/>
      <polygon class="cls-2" points="277.54 42.74 273.79 36.47 272.6 36.47 272.6 44.75 273.63 44.75 273.63 38.28 277.55 44.75 278.57 44.75 278.57 36.47 277.54 36.47 277.54 42.74"/>
      <rect class="cls-2" x="268.25" y="36.47" width="1.16" height="8.27"/>
    </g>
    <g>
      <path class="cls-3" d="M351.55,76.08c-2.31,0-4.19,1.88-4.19,4.19s1.88,4.19,4.19,4.19,4.19-1.88,4.19-4.19-1.87-4.19-4.19-4.19"/>
      <path class="cls-3" d="M369.11,55.08c-5.19,0-9.4,4.21-9.4,9.4s4.21,9.4,9.4,9.4,9.4-4.21,9.4-9.4-4.21-9.4-9.4-9.4"/>
      <path class="cls-3" d="M396.02,24.57c-8.52,0-15.42,6.9-15.42,15.42s6.91,15.42,15.42,15.42c8.52,0,15.42-6.9,15.42-15.42,0-8.52-6.9-15.42-15.42-15.42"/>
    </g>
    <g>
      <path class="cls-3" d="M239.14,110.26c.44,0,.8.35.81.8h0c0,.44-.35.8-.8.81h0c-.44,0-.8-.35-.8-.79h0c0-.44.35-.8.79-.81h0ZM234.34,111.86c-.44,0-.8-.37-.79-.81h0c0-.44.37-.8.81-.79h0c.44,0,.79.36.79.81h0c0,.44-.36.79-.8.79h0ZM243.14,111.01c-.01-.44.34-.81.78-.82h0c.44-.01.81.34.82.78h0c.01.44-.34.81-.78.82h-.02c-.44,0-.79-.34-.8-.78h0ZM229.52,111.78c-.44-.01-.79-.38-.78-.82h0c.01-.44.38-.79.82-.78h0c.44,0,.79.38.78.82h0c-.01.44-.37.78-.8.78h0s-.01,0-.02,0h0ZM248.7,110.04c.44-.02.81.33.83.77h0c.02.44-.33.81-.77.83h0s-.02,0-.03,0h0c-.43,0-.78-.34-.8-.77h0c-.02-.44.33-.82.77-.83h0ZM224.71,111.62c-.44-.02-.79-.39-.77-.83h0c.02-.44.39-.79.83-.77h0c.44.02.78.39.77.83h0c-.02.43-.37.77-.8.77h0s-.02,0-.03,0h0ZM253.48,109.81c.44-.03.82.31.84.75h0c.03.44-.31.82-.75.84h0s-.03,0-.05,0h0c-.42,0-.77-.33-.8-.75h0c-.03-.44.31-.82.75-.84h0ZM219.9,111.4c-.44-.02-.78-.4-.75-.84h0c.02-.44.4-.78.84-.75h0c.44.02.78.4.75.84h0c-.02.43-.38.76-.8.76h0s-.03,0-.04,0h0ZM257.51,110.36c-.03-.44.3-.82.74-.86h0c.44-.03.82.3.86.74h0c.03.44-.3.82-.74.86h0s-.04,0-.06,0h0c-.41,0-.76-.32-.79-.74h0ZM215.1,111.1c-.44-.03-.77-.41-.74-.85h0c.03-.44.41-.77.85-.74h0c.44.03.77.41.74.85h0c-.03.42-.38.74-.8.74h0s-.04,0-.06,0h0ZM210.3,110.73c-.44-.04-.77-.42-.73-.86h0c.04-.44.42-.77.86-.73h0c.44.04.77.42.73.86h0c-.04.42-.39.73-.8.73h0s-.04,0-.07,0h0ZM262.3,109.98c-.04-.44.28-.83.72-.87h0c.44-.04.83.28.87.72h0c.04.44-.28.83-.72.87h0s-.05,0-.07,0h0c-.41,0-.76-.31-.8-.73h0ZM205.51,110.29c-.44-.04-.76-.44-.72-.87h0c.04-.44.43-.76.87-.72h0c.44.04.76.43.72.87h0c-.04.41-.39.72-.79.72h0s-.05,0-.08,0h0ZM267.08,109.52c-.05-.44.27-.83.71-.88h0c.44-.05.83.27.88.71h0c.05.44-.27.83-.71.88h0s-.06,0-.09,0h0c-.4,0-.75-.3-.79-.71h0ZM200.72,109.79c-.44-.05-.76-.45-.71-.88h0c.05-.44.44-.76.88-.7h0c.44.05.76.44.71.88h0c-.05.41-.39.71-.8.71h0s-.06,0-.09,0h0ZM271.85,108.97c-.06-.44.25-.84.69-.89h0c.44-.06.84.25.9.69h0c.06.44-.25.84-.69.9h0s-.07,0-.1,0h0c-.4,0-.74-.29-.79-.7h0ZM195.96,109.21c-.44-.06-.75-.46-.69-.89h0c.05-.44.46-.75.9-.69h0c.44.06.75.46.69.9h0c-.05.4-.4.7-.79.7h0s-.07,0-.1,0h0ZM276.61,108.33c-.07-.44.24-.84.67-.91h0c.44-.07.84.24.91.67h0c.06.44-.24.84-.67.91h0s-.08,0-.12,0h0c-.39,0-.73-.29-.79-.68h0ZM277.52,109h0s0,0,0,0h0ZM191.2,108.57c-.44-.06-.74-.46-.68-.9h0c.06-.44.47-.74.9-.68h0c.44.06.74.47.68.91h0c-.06.4-.4.69-.79.69h0s-.08,0-.11,0h0ZM281.35,107.59c-.08-.44.22-.85.66-.92h0c.44-.07.85.22.92.66h0c.07.44-.22.85-.66.92h0s-.09.01-.13.01h0c-.38,0-.72-.28-.79-.67h0ZM186.46,107.87c-.44-.07-.73-.48-.67-.91h0c.07-.44.48-.74.91-.67h0c.44.07.73.48.67.91h0c-.06.39-.4.67-.79.67h0s-.08,0-.12,0h0ZM286.08,106.76c-.08-.43.2-.85.64-.93h0c.43-.08.85.2.94.63h0c.08.43-.2.85-.64.94h0s-.1.01-.15.01h0c-.38,0-.71-.27-.79-.65h0ZM181.72,107.1c-.44-.08-.73-.49-.65-.92h0c.07-.44.49-.73.92-.65h0c.44.07.73.48.66.92h0c-.06.39-.4.67-.79.67h0s-.09,0-.14-.01h0ZM291.41,104.89c.43-.09.86.18.95.62h0c.09.43-.18.86-.62.95h0c-.06.01-.11.02-.17.02h0c-.37,0-.7-.26-.78-.63h0c-.09-.43.18-.86.62-.95h0ZM176.99,106.26h0c-.43-.08-.72-.5-.64-.93h0c.08-.43.5-.72.93-.64h0c.43.08.72.5.64.93h0c-.07.38-.41.66-.79.66h0s-.1,0-.14-.01h0ZM295.48,104.8c-.1-.43.17-.86.6-.96h0c.43-.1.86.17.96.59h0c.1.43-.17.86-.59.96h0c-.06.01-.12.02-.18.02h0c-.36,0-.69-.25-.78-.62h0ZM172.27,105.36c-.43-.09-.72-.51-.63-.94h0c.09-.43.51-.72.94-.63h0c.43.08.71.51.63.94h0c-.08.38-.41.65-.78.65h0c-.05,0-.1,0-.15-.02h0ZM167.56,104.39c-.43-.09-.71-.52-.62-.95h0c.09-.43.52-.71.95-.61h0c.43.09.71.52.62.95h0c-.08.38-.41.63-.78.63h0c-.05,0-.11,0-.17-.02h0ZM300.14,103.66c-.11-.43.15-.87.57-.98h0c.43-.11.86.15.98.57h0c.11.43-.15.86-.57.98h0c-.07.02-.13.03-.2.03h0c-.36,0-.68-.24-.78-.6h0ZM162.87,103.35c-.43-.1-.7-.53-.6-.96h0c.1-.43.53-.7.96-.6h0c.43.1.7.53.6.96h0c-.08.37-.41.62-.78.62h0c-.06,0-.12,0-.18-.02h0ZM304.78,102.42c-.12-.43.12-.87.55-.99h0c.42-.12.87.12.99.55h0c.12.42-.12.87-.55.99h0c-.07.02-.15.03-.22.03h0c-.35,0-.67-.23-.77-.58h0ZM158.19,102.25c-.43-.1-.69-.54-.59-.97h0c.1-.43.53-.69.96-.59h0c.43.1.69.54.59.97h0c-.09.37-.42.61-.78.61h0c-.06,0-.13,0-.19-.02h0ZM309.38,101.06c-.13-.42.1-.87.52-1h0c.42-.13.87.1,1,.52h0c.13.42-.1.87-.52,1h0c-.08.02-.16.04-.24.04h0c-.34,0-.65-.22-.76-.56h0ZM153.52,101.09c-.43-.11-.68-.55-.57-.97h0c.11-.43.54-.69.97-.58h0c.43.11.69.54.58.97h0c-.09.36-.42.6-.78.6h0c-.07,0-.13,0-.2-.03h0ZM314.97,100.08c-.09.03-.17.04-.26.04h0c-.33,0-.64-.21-.76-.54h0c-.15-.42.08-.88.5-1.02h0c.42-.14.87.08,1.02.5h0c.14.42-.08.87-.5,1.02h0ZM148.87,99.86c-.43-.12-.68-.56-.56-.98h0c.12-.43.56-.68.98-.56h0c.43.12.68.56.56.98h0c-.1.36-.42.59-.77.59h0c-.07,0-.14,0-.21-.03h0ZM144.23,98.56c-.42-.12-.67-.57-.55-.99h0c.12-.43.57-.67.99-.55h0c.42.12.67.56.55.99h0c-.1.35-.42.58-.77.58h0c-.07,0-.15,0-.22-.03h0ZM318.48,97.98c-.15-.41.05-.88.47-1.03h0c.41-.16.87.05,1.03.47h0c.16.41-.05.87-.47,1.03h0c-.09.04-.19.05-.28.05h0c-.33,0-.63-.2-.75-.52h0ZM139.61,97.2c-.42-.13-.66-.58-.53-1h0c.13-.42.58-.66,1-.53h0c.42.13.66.57.53,1h0c-.1.35-.42.57-.77.57h0c-.08,0-.15-.01-.23-.03h0ZM322.96,96.25c-.17-.41.03-.88.44-1.04h0c.41-.17.87.03,1.04.44h0c.17.41-.03.88-.44,1.04h0c-.1.04-.2.06-.3.06h0c-.32,0-.61-.19-.74-.5h0ZM324,96.69h0s0,0,0,0h0ZM135.01,95.77c-.42-.13-.66-.58-.52-1.01h0c.13-.42.58-.65,1.01-.52h0c.42.14.65.58.52,1.01h0c-.11.34-.42.56-.76.56h0c-.08,0-.16-.01-.24-.04h0ZM327.38,94.39c-.18-.4,0-.88.4-1.06h0c.4-.18.88,0,1.06.41h0c.18.4,0,.88-.41,1.06h0c-.11.05-.22.07-.33.07h0c-.31,0-.6-.18-.73-.47h0ZM130.43,94.27c-.42-.14-.64-.59-.5-1.01h0c.14-.42.59-.64,1.01-.5h0c.42.14.64.59.5,1.01h0c-.11.34-.42.55-.76.55h0c-.08,0-.17-.01-.25-.04h0ZM331.75,92.39c-.19-.4-.03-.88.37-1.07h0c.4-.19.87-.03,1.07.37h0c.19.4.03.88-.37,1.07h0c-.11.05-.23.08-.35.08h0c-.3,0-.58-.17-.72-.45h0ZM125.87,92.71c-.42-.15-.64-.6-.49-1.02h0c.15-.42.6-.64,1.02-.49h0c.42.14.64.6.49,1.02h0c-.12.33-.43.54-.76.54h0c-.09,0-.18-.01-.26-.05h0ZM121.34,91.08c-.41-.16-.63-.61-.48-1.03h0c.15-.42.61-.63,1.03-.47h0c.42.15.63.61.48,1.03h0c-.12.32-.43.53-.75.53h0c-.09,0-.18-.02-.27-.05h0ZM336.04,90.25c-.21-.39-.06-.88.33-1.08h0c.39-.2.87-.05,1.08.34h0c.21.39.06.87-.33,1.08h0c-.12.06-.25.09-.37.09h0c-.29,0-.57-.16-.71-.43h0ZM116.82,89.38c-.41-.16-.62-.62-.46-1.03h0c.16-.41.62-.62,1.03-.46h0c.41.16.62.62.46,1.03h0c-.12.32-.43.51-.75.51h0c-.1,0-.19-.02-.29-.05h0ZM112.33,87.62c-.41-.17-.61-.63-.44-1.04h0c.16-.41.63-.61,1.04-.44h0c.41.17.61.63.44,1.04h0c-.13.31-.43.5-.74.5h0c-.1,0-.2-.02-.3-.06h0ZM107.87,85.79h0c-.41-.17-.6-.64-.43-1.05h0c.17-.41.64-.6,1.05-.43h0c.41.17.6.64.43,1.05h0c-.13.3-.43.49-.74.49h0c-.1,0-.21-.02-.31-.06h0ZM103.43,83.88c-.4-.18-.59-.65-.41-1.05h0c.18-.41.65-.59,1.05-.41h0c.4.18.59.65.41,1.05h0c-.13.3-.43.48-.73.48h0c-.11,0-.22-.02-.32-.07h0ZM99.03,81.91c-.4-.19-.58-.66-.39-1.06h0c.18-.4.66-.58,1.06-.4h0c.4.18.58.66.39,1.06h0c-.13.29-.43.47-.73.47h0c-.11,0-.22-.02-.33-.07h0ZM94.65,79.87h0c-.4-.19-.57-.67-.38-1.07h0c.19-.4.67-.57,1.07-.38h0c.4.19.57.67.38,1.07h0c-.14.29-.42.46-.72.46h0c-.12,0-.23-.03-.34-.08h0ZM90.31,77.75h0c-.4-.2-.56-.68-.36-1.07h0c.2-.39.68-.56,1.07-.36h0c.4.2.56.68.36,1.07h0c-.14.28-.42.44-.72.44h0c-.12,0-.24-.03-.35-.08h0ZM86,75.56c-.39-.21-.54-.69-.34-1.08h0c.2-.39.68-.54,1.08-.34h0c.39.2.54.69.34,1.08h0c-.14.28-.42.43-.71.43h0c-.12,0-.25-.03-.37-.09h0M81.73,73.3c-.39-.21-.53-.7-.32-1.09h0c.21-.39.69-.53,1.08-.32h0c.39.21.53.7.32,1.08h0c-.14.27-.42.42-.7.42h0c-.13,0-.26-.03-.38-.1h0ZM77.52,70.98c-.38-.22-.52-.71-.3-1.09h0c.21-.38.7-.52,1.09-.3h0c.39.22.52.7.3,1.09h0c-.15.26-.42.41-.7.41h0c-.13,0-.27-.03-.39-.1h0ZM73.34,68.58c-.38-.22-.51-.71-.28-1.1h0c.22-.38.71-.51,1.09-.28h0c.38.22.51.71.29,1.09h0c-.15.25-.42.4-.69.4h0c-.14,0-.28-.04-.4-.11h0ZM69.21,66.1c-.38-.23-.5-.72-.27-1.1h0c.23-.38.72-.5,1.1-.26h0c.38.23.49.72.26,1.1h0c-.15.25-.41.38-.68.38h0c-.14,0-.29-.04-.42-.12h0ZM65.12,63.55c-.37-.24-.48-.73-.24-1.1h0c.24-.37.73-.48,1.1-.25h0c.37.24.48.73.25,1.11h0c-.15.24-.41.37-.68.37h0c-.15,0-.3-.04-.43-.13h0ZM61.09,60.93c-.37-.24-.47-.74-.22-1.11h0c.24-.37.74-.47,1.11-.23h0c.37.24.47.74.23,1.11h0c-.16.23-.41.36-.67.36h0c-.15,0-.3-.04-.44-.13h0ZM57.1,58.23c-.36-.25-.46-.75-.2-1.12h0c.25-.36.75-.45,1.11-.2h0c.36.25.45.75.2,1.11h0c-.15.22-.4.34-.66.34h0c-.16,0-.32-.05-.45-.14h0ZM53.17,55.44c-.36-.26-.44-.76-.18-1.12h0c.26-.36.76-.44,1.12-.18h0c.36.26.44.76.18,1.12h0c-.16.22-.4.33-.65.33h0c-.16,0-.33-.05-.47-.15h0ZM49.29,52.59c-.35-.27-.42-.77-.16-1.12h0c.27-.35.77-.42,1.12-.16h0c.35.27.42.77.16,1.12h0c-.16.21-.4.32-.64.32h0c-.17,0-.34-.05-.48-.16h0ZM45.47,49.64c-.35-.27-.41-.78-.13-1.12h0c.27-.35.78-.41,1.12-.13h0c.35.27.41.77.13,1.12h0c-.16.2-.39.3-.63.3h0c-.17,0-.35-.06-.49-.17h0ZM41.72,46.62c-.34-.28-.39-.78-.11-1.12h0c.28-.34.78-.39,1.12-.11h0c.34.28.39.78.11,1.12h0c-.16.19-.39.29-.62.29h0c-.18,0-.36-.06-.51-.18h0ZM38.03,43.53h0c-.33-.29-.37-.8-.09-1.13h0c.29-.34.79-.37,1.13-.09h0c.33.29.37.79.09,1.13h0c-.16.18-.38.28-.61.28h0c-.18,0-.37-.06-.52-.19h0ZM34.41,40.34c-.33-.3-.36-.8-.06-1.13h0c.3-.33.8-.35,1.13-.06h0c.33.29.36.8.06,1.13h0c-.16.18-.38.26-.6.26h0c-.19,0-.38-.07-.53-.2h0ZM30.87,37.08c-.32-.3-.34-.81-.03-1.13h0c.3-.32.81-.34,1.13-.03h0c.32.3.34.81.03,1.13h0c-.16.17-.37.25-.58.25h0c-.2,0-.39-.07-.55-.22h0ZM27.4,33.73h0c-.31-.31-.32-.82,0-1.13h0c.31-.32.82-.32,1.13,0h0c.31.31.32.82,0,1.13h0c-.16.16-.36.24-.57.24h0c-.2,0-.41-.08-.56-.23h0ZM24.01,30.3h0c-.31-.32-.3-.82.02-1.13h0c.32-.31.82-.3,1.13.02h0c.31.32.3.82-.02,1.13h0c-.16.15-.35.22-.56.22h0c-.21,0-.42-.08-.58-.25h0ZM20.7,26.78c-.3-.33-.28-.83.05-1.13h0c.33-.3.83-.28,1.13.05h0c.3.33.28.83-.05,1.13h0c-.15.14-.35.21-.54.21h0c-.22,0-.43-.09-.59-.26h0ZM17.48,23.18c-.29-.33-.25-.84.08-1.13h0c.33-.29.84-.26,1.13.08h0c.29.33.26.84-.08,1.13h0c-.15.13-.34.2-.53.2h0c-.22,0-.45-.09-.6-.27h0ZM14.35,19.49h0c-.28-.34-.23-.85.11-1.13h0c.34-.28.84-.23,1.13.11h0c.28.34.23.85-.11,1.13h0c-.15.12-.33.18-.51.18h0c-.23,0-.46-.1-.62-.29h0ZM11.32,15.73c-.27-.35-.21-.85.14-1.12h0c.35-.27.85-.21,1.12.14h0c.27.35.21.85-.14,1.12h0c-.15.11-.32.17-.49.17h0c-.24,0-.47-.11-.63-.31h0ZM8.4,11.88h0c-.26-.36-.19-.86.17-1.12h0c.35-.26.86-.19,1.12.17h0c.26.35.19.86-.17,1.12h0c-.14.11-.31.16-.48.16h0c-.25,0-.49-.11-.64-.32h0ZM5.59,7.96c-.25-.36-.17-.86.2-1.11h0c.36-.25.86-.16,1.11.2h0c.25.36.16.86-.2,1.11h0c-.14.1-.3.14-.46.14h0c-.25,0-.5-.12-.66-.34h0Z"/>
      <path class="cls-3" d="M340.39,88.13c-.15-.15-.23-.35-.23-.57h0c0-.21.08-.42.23-.57h0c.15-.15.35-.23.57-.23h0c.21,0,.41.09.56.23h0c.15.15.24.35.24.57h0c0,.21-.08.41-.24.57h0c-.15.15-.35.23-.56.23h0c-.22,0-.42-.08-.57-.23h0ZM3.07,4.2c-.15-.15-.23-.35-.23-.57h0c0-.21.08-.42.23-.57h0c.15-.15.35-.24.57-.24h0c.21,0,.42.09.57.24h0c.15.15.23.35.23.57h0c0,.21-.08.41-.23.57h0c-.15.15-.35.23-.57.23h0c-.21,0-.42-.08-.57-.23h0Z"/>
    </g>
    <rect class="cls-1" width="413.86" height="113.39"/>
  </g>
</svg>