<?xml version="1.0" encoding="UTF-8"?>
<svg id="Layer_2" data-name="Layer 2" xmlns="http://www.w3.org/2000/svg" viewBox="0 0 183.84 66.36">
  <defs>
    <style>
      .cls-1 {
        fill: none;
      }

      .cls-2 {
        fill: #72808a;
      }

      .cls-3 {
        fill: #70aeb9;
      }
    </style>
  </defs>
  <g id="Layer_3" data-name="Layer 3">
    <path class="cls-2" d="M82.41,37.53l.79,2.29h1.21l-2.9-8.33h-1.41l-2.8,8.33h1.13l.74-2.29h3.23ZM80.8,32.5h.03s-.03,0-.03,0h0ZM80.76,32.65l1.31,3.87h-2.56l1.26-3.87Z"/>
    <path class="cls-2" d="M73.92,37.53l.8,2.29h1.21l-2.9-8.33h-1.41l-2.8,8.33h1.13l.74-2.29h3.23ZM72.32,32.5h.03s-.03,0-.03,0h0ZM72.27,32.65l1.31,3.87h-2.56l1.26-3.87Z"/>
    <path class="cls-2" d="M118.35,35.36l-1.85-.55c-.56-.17-.93-.25-.92-.71v-.67c.02-.47.25-.85.89-.87h3.39v-.64c0-.31-.32-.37-.72-.37h-2.6c-.77,0-1.29.25-1.58.61-.3.36-.5.71-.5,1.27v.81c-.01,1.05.59,1.36,1.75,1.65l1.92.56c.57.17.85.29.85.76v.35c0,.74-.41,1.25-1.15,1.25h-3.38v.64c0,.27.23.37.48.37h2.9c.82,0,1.32-.23,1.62-.51s.64-.82.64-1.71v-.55c.01-1.07-.7-1.4-1.75-1.69Z"/>
    <path class="cls-2" d="M110.32,37.44c-.01.91-.41,1.47-1.29,1.48h-1.34c-.89-.01-1.28-.57-1.29-1.48v-5.88h-1.16v5.93c0,.84.24,1.47.69,1.88.44.41,1.07.59,1.8.59h1.24c.76,0,1.39-.2,1.82-.62.43-.42.66-1.06.66-1.9v-5.88h-1.13v5.88Z"/>
    <polygon class="cls-2" points="100.78 34.97 96.71 34.97 96.71 31.56 95.55 31.56 95.55 39.83 96.71 39.83 96.71 35.98 100.78 35.98 100.78 39.83 101.94 39.83 101.94 31.56 100.78 31.56 100.78 34.97"/>
    <path class="cls-2" d="M90.6,36.52c1.04,0,1.84-.6,1.84-1.8v-1.32c0-.6-.15-1.08-.5-1.39-.35-.31-.86-.45-1.54-.45h-3.77v8.26h1.16v-3.3h1.39l2.24,3.3h1.38l-2.29-3.3h.09ZM87.78,35.55v-2.98h2.28c.96.03,1.21.13,1.23.91v1.05c-.03.83-.19.98-1.12,1.01h-2.39Z"/>
    <path class="cls-2" d="M81.21,15.51l-2.8,8.33h1.13l.74-2.29h3.23l.79,2.29h1.21l-2.9-8.33h-1.41ZM81.91,16.52h.03s-.03,0-.03,0h0ZM80.61,20.54l1.25-3.87,1.31,3.87h-2.56Z"/>
    <path class="cls-2" d="M100.08,21.55l.8,2.29h1.21l-2.9-8.33h-1.41l-2.8,8.33h1.13l.74-2.29h3.23ZM98.47,16.52h.03s-.03,0-.03,0h0ZM98.43,16.67l1.31,3.87h-2.56l1.26-3.87Z"/>
    <polygon class="cls-2" points="119.05 22.83 114.76 22.83 114.76 20 118.14 20 118.14 18.98 114.76 18.98 114.76 16.59 119.05 16.59 119.05 15.58 113.6 15.58 113.6 23.84 119.05 23.84 119.05 22.83"/>
    <polygon class="cls-2" points="56.05 22.83 51.77 22.83 51.77 20 55.15 20 55.15 18.98 51.77 18.98 51.77 16.59 56.05 16.59 56.05 15.58 50.61 15.58 50.61 23.84 56.05 23.84 56.05 22.83"/>
    <polygon class="cls-2" points="126.28 22.3 128.32 16.9 128.41 17.81 128.98 23.84 130.08 23.84 129.26 15.58 127.68 15.58 125.77 20.72 123.87 15.58 122.28 15.58 121.47 23.84 122.56 23.84 123.14 17.81 123.23 16.9 125.27 22.3 126.28 22.3"/>
    <path class="cls-2" d="M109.79,23.23c.46-.44.69-1.13.69-2.09v-2.92c0-.91-.23-1.58-.68-2.02-.45-.43-1.11-.62-1.92-.62h-3.46v8.26h3.44c.81,0,1.47-.17,1.93-.61ZM105.58,22.85v-6.27h2.2c1.1.02,1.52.49,1.54,1.75v2.78c-.03,1.28-.37,1.72-1.53,1.74h-2.21Z"/>
    <path class="cls-2" d="M71.05,19.38l-1.85-.54c-.56-.17-.93-.25-.92-.71v-.67c.02-.47.25-.85.89-.87h3.39v-.64c0-.31-.32-.37-.72-.37h-2.6c-.77,0-1.29.25-1.58.61-.3.36-.5.71-.5,1.27v.81c-.01,1.05.59,1.36,1.75,1.65l1.92.56c.57.17.85.29.85.76v.35c0,.74-.41,1.25-1.14,1.25h-3.38v.64c0,.27.23.37.48.37h2.9c.82,0,1.32-.23,1.62-.51.3-.28.65-.82.65-1.71v-.55c.01-1.07-.7-1.4-1.75-1.69Z"/>
    <path class="cls-2" d="M62.72,19.38l-1.85-.54c-.56-.17-.93-.25-.92-.71v-.67c.02-.47.25-.85.89-.87h3.39v-.64c0-.31-.32-.37-.72-.37h-2.6c-.77,0-1.29.25-1.58.61-.3.36-.5.71-.5,1.27v.81c-.01,1.05.59,1.36,1.75,1.65l1.92.56c.57.17.85.29.85.76v.35c0,.74-.41,1.25-1.15,1.25h-3.38v.64c0,.27.23.37.48.37h2.9c.82,0,1.32-.23,1.62-.51.3-.28.64-.82.64-1.71v-.55c.01-1.07-.7-1.4-1.75-1.69Z"/>
    <path class="cls-2" d="M31.94,19.38l-1.85-.54c-.56-.17-.93-.25-.92-.71v-.67c.02-.47.25-.85.89-.87h3.39v-.64c0-.31-.32-.37-.72-.37h-2.6c-.77,0-1.29.25-1.59.61-.3.36-.5.71-.5,1.27v.81c-.01,1.05.59,1.36,1.75,1.65l1.92.56c.57.17.85.29.85.76v.35c0,.74-.41,1.25-1.14,1.25h-3.38v.64c0,.27.23.37.48.37h2.9c.82,0,1.32-.23,1.62-.51.3-.28.65-.82.65-1.71v-.55c.01-1.07-.71-1.4-1.75-1.69Z"/>
    <path class="cls-2" d="M88.53,17.86c0-.74.41-1.25,1.14-1.25h3.38v-.64c0-.27-.23-.37-.48-.37h-2.9c-.82,0-1.32.23-1.62.51-.3.28-.64.82-.64,1.71v3.81c0,.89.34,1.43.64,1.71.3.28.8.51,1.62.51h2.9c.25,0,.48-.1.48-.37v-.64h-3.38c-.74,0-1.14-.52-1.14-1.25v-3.72Z"/>
    <path class="cls-2" d="M24.05,21.46c-.01.91-.41,1.47-1.3,1.48h-1.34c-.89-.01-1.28-.57-1.29-1.48v-5.88h-1.16v5.93c0,.84.24,1.47.69,1.88.44.41,1.07.59,1.8.59h1.24c.76,0,1.39-.2,1.82-.62.43-.42.66-1.06.66-1.9v-5.88h-1.13v5.88Z"/>
    <polygon class="cls-2" points="137.15 15.57 135.08 19.18 133.01 15.57 131.73 15.57 134.43 20.21 134.43 23.84 135.61 23.84 135.61 20.21 138.35 15.57 137.15 15.57"/>
    <path class="cls-2" d="M15.11,19.57c.28-.11.49-.28.64-.51.18-.3.25-.69.25-1.19v-.62c0-.39-.13-.81-.42-1.14-.29-.33-.74-.55-1.35-.55h-3.97v8.27h3.83c.54,0,1.05-.12,1.42-.43.38-.31.6-.81.6-1.53v-.86c0-.67-.33-1.25-1-1.46ZM11.41,16.56h2.53c.38,0,.62.09.76.24.14.15.21.39.21.72v.52c0,.43-.09.69-.24.84-.15.15-.37.22-.69.22h-2.56v-2.54ZM14.97,21.8c0,.44-.08.7-.21.85-.13.14-.36.21-.72.21h-2.63v-2.7h2.56c.37,0,.62.07.77.21.15.14.23.38.23.78v.66Z"/>
    <polygon class="cls-2" points="46.04 21.83 42.29 15.57 41.1 15.57 41.1 23.84 42.13 23.84 42.13 17.37 46.05 23.84 47.07 23.84 47.07 15.57 46.04 15.57 46.04 21.83"/>
    <rect class="cls-2" x="36.75" y="15.57" width="1.16" height="8.27"/>
    <g>
      <path class="cls-3" d="M120.04,55.17c-2.31,0-4.19,1.88-4.19,4.19s1.87,4.19,4.19,4.19,4.19-1.88,4.19-4.19-1.87-4.19-4.19-4.19Z"/>
      <circle class="cls-3" cx="137.61" cy="43.57" r="9.4"/>
      <path class="cls-3" d="M164.52,3.66c-8.52,0-15.42,6.9-15.42,15.42s6.91,15.42,15.42,15.42c8.52,0,15.42-6.9,15.42-15.42,0-8.52-6.9-15.42-15.42-15.42Z"/>
    </g>
    <rect class="cls-1" width="183.84" height="66.36"/>
  </g>
</svg>