<svg xmlns="http://www.w3.org/2000/svg" viewBox="0 0 228.59 48.69">
	<path class="cls-2" fill="#80B4C0" d="M148,38.09a2.39,2.39,0,1,0,2.39,2.39A2.39,2.39,0,0,0,148,38.09Z"/>
	<path class="cls-2" fill="#80B4C0" d="M158.07,26.09a5.37,5.37,0,1,0,5.37,5.37A5.37,5.37,0,0,0,158.07,26.09Z"/>
	<path class="cls-2" fill="#80B4C0" d="M173.44,8.67a8.81,8.81,0,1,0,8.81,8.81A8.8,8.8,0,0,0,173.44,8.67Z"/>
	<path class="cls-1" d="M103.49,12.07l-2.8,8.33h1.13l.74-2.29h3.23l.8,2.29h1.21l-2.9-8.33Zm.69,1h0Zm-1.3,4,1.26-3.87,1.31,3.87Z"/>
	<path class="cls-1" d="M122.89,18.11l.8,2.29h1.2L122,12.07h-1.41l-2.8,8.33h1.13l.74-2.29Zm-1.61-5h0Zm0,.15,1.3,3.87H120Z"/>
	<polygon class="cls-1" points="141.72 19.4 137.44 19.4 137.44 16.56 140.82 16.56 140.82 15.54 137.44 15.54 137.44 13.15 141.72 13.15 141.72 12.14 136.28 12.14 136.28 20.41 141.72 20.41 141.72 19.4"/>
	<rect class="cls-1" x="156" y="12.14" width="1.16" height="8.26"/>
	<polygon class="cls-1" points="149.22 18.86 151.26 13.46 151.35 14.38 151.93 20.41 153.02 20.41 152.21 12.14 150.62 12.14 148.72 17.29 146.81 12.14 145.23 12.14 144.41 20.41 145.51 20.41 146.08 14.38 146.17 13.46 148.21 18.86 149.22 18.86"/>
	<path class="cls-1" d="M132.46,19.79a2.77,2.77,0,0,0,.69-2.09V14.78a2.71,2.71,0,0,0-.68-2,2.69,2.69,0,0,0-1.92-.62h-3.46V20.4h3.44A2.69,2.69,0,0,0,132.46,19.79Zm-4.21-.38V13.14h2.2c1.11,0,1.52.49,1.54,1.75v2.77c0,1.29-.36,1.72-1.53,1.75Z"/>
	<polygon class="cls-1" points="56.76 15.55 52.69 15.55 52.69 12.14 51.53 12.14 51.53 20.41 52.69 20.41 52.69 16.56 56.76 16.56 56.76 20.41 57.92 20.41 57.92 12.14 56.76 12.14 56.76 15.55"/>
	<polygon class="cls-1" points="63.48 18.9 63.45 19.05 63.42 18.91 61.26 12.14 60.04 12.14 62.81 20.41 63.99 20.41 66.83 12.14 65.73 12.14 63.48 18.9"/>
	<polygon class="cls-1" points="88.36 18.9 88.33 19.05 88.3 18.91 86.14 12.14 84.92 12.14 87.69 20.41 88.87 20.41 91.72 12.14 90.61 12.14 88.36 18.9"/>
	<path class="cls-1" d="M97.17,16l-1.85-.55c-.56-.17-.93-.25-.92-.71V14a.83.83,0,0,1,.89-.87h3.39v-.64c0-.31-.32-.37-.72-.37h-2.6a2,2,0,0,0-1.58.61,1.83,1.83,0,0,0-.5,1.27v.81c0,1.05.59,1.36,1.74,1.65l1.92.56c.58.16.85.29.85.75v.35a1.11,1.11,0,0,1-1.14,1.25H93.27V20c0,.27.23.36.48.36h2.9a2.38,2.38,0,0,0,1.63-.5,2.27,2.27,0,0,0,.64-1.72v-.54C98.93,16.57,98.22,16.24,97.17,16Z"/>
	<polygon class="cls-1" points="68.95 20.41 74.39 20.41 74.39 19.4 70.11 19.4 70.11 16.56 73.49 16.56 73.49 15.54 70.11 15.54 70.11 13.15 74.39 13.15 74.39 12.14 68.95 12.14 68.95 20.41"/>
	<path class="cls-1" d="M81.09,17.1a1.69,1.69,0,0,0,1.84-1.8V14a1.76,1.76,0,0,0-.51-1.39,2.23,2.23,0,0,0-1.54-.45H77.11V20.4h1.16V17.1h1.39l2.24,3.3h1.38L81,17.1Zm-2.82-1v-3h2.28c1,0,1.2.13,1.23.91v1.06c0,.83-.19,1-1.12,1Z"/>
	<polygon class="cls-1" points="34.44 20.41 39.88 20.41 39.88 19.4 35.6 19.4 35.6 16.56 38.98 16.56 38.98 15.54 35.6 15.54 35.6 13.15 39.88 13.15 39.88 12.14 34.44 12.14 34.44 20.41"/>
	<path class="cls-1" d="M46.58,17.1a1.69,1.69,0,0,0,1.84-1.8V14a1.76,1.76,0,0,0-.51-1.39,2.23,2.23,0,0,0-1.54-.45H42.6V20.4h1.16V17.1h1.39l2.24,3.3h1.38l-2.28-3.3Zm-2.82-1v-3H46c1,0,1.2.13,1.23.91v1.06c0,.83-.19,1-1.12,1Z"/>
	<polygon class="cls-1" points="114.97 20.41 116.25 20.41 113.3 16.07 116.17 12.14 114.78 12.14 112.22 15.65 111.24 15.65 111.24 12.14 110.07 12.14 110.07 20.41 111.24 20.41 111.24 16.68 112.29 16.68 114.97 20.41"/>
	<path class="cls-1" d="M102.37,34.05l.79,2.3h1.21L101.47,28h-1.41l-2.8,8.33H98.4l.73-2.3Zm-1.61-5h0Zm-.05.16L102,33H99.46Z"/>
	<path class="cls-1" d="M93.88,34.05l.79,2.3h1.21L93,28H91.57l-2.8,8.33h1.14l.74-2.3Zm-1.61-5h0Zm0,.16L93.53,33H91Z"/>
	<path class="cls-1" d="M138.31,31.88l-1.86-.54c-.55-.17-.93-.26-.92-.71V30a.82.82,0,0,1,.89-.87h3.39v-.64c0-.32-.32-.37-.72-.37H136.5a2,2,0,0,0-1.59.61,1.83,1.83,0,0,0-.5,1.27v.81c0,1,.59,1.36,1.75,1.65l1.92.55c.57.17.85.29.85.76v.35a1.12,1.12,0,0,1-1.15,1.25H134.4V36c0,.27.23.37.48.37h2.91a2.28,2.28,0,0,0,1.62-.51,2.25,2.25,0,0,0,.64-1.71v-.55C140.07,32.51,139.35,32.18,138.31,31.88Z"/>
	<path class="cls-1" d="M130.28,34c0,.91-.41,1.46-1.3,1.47h-1.33c-.89,0-1.29-.56-1.3-1.47V28.08h-1.16V34a2.43,2.43,0,0,0,.69,1.88,2.56,2.56,0,0,0,1.8.6h1.24A2.25,2.25,0,0,0,131.4,34V28.08h-1.12Z"/>
	<polygon class="cls-1" points="120.73 31.49 116.66 31.49 116.66 28.08 115.5 28.08 115.5 36.35 116.66 36.35 116.66 32.5 120.73 32.5 120.73 36.35 121.89 36.35 121.89 28.08 120.73 28.08 120.73 31.49"/>
	<path class="cls-1" d="M110.55,33a1.69,1.69,0,0,0,1.84-1.8V29.92a1.77,1.77,0,0,0-.5-1.39,2.26,2.26,0,0,0-1.55-.45h-3.77v8.27h1.16V33h1.39l2.24,3.31h1.39L110.46,33Zm-2.82-1v-3H110c1,0,1.21.12,1.23.9v1.06c0,.83-.18,1-1.12,1Z"/>
</svg>